if (_typeface_js && _typeface_js.loadFace) _typeface_js.loadFace({"glyphs":{"S":{"x_min":0,"x_max":866.671875,"ha":699,"o":"m 342 562 q 554 483 471 562 q 638 286 638 404 q 555 85 638 171 q 358 -1 473 -1 l 141 -1 l 0 -1 l 0 227 l 333 225 q 372 242 357 225 q 388 284 388 260 q 322 336 388 336 q 100 422 188 336 q 13 637 13 508 q 99 831 13 752 q 304 910 186 910 l 866 910 l 629 674 l 296 674 q 259 664 273 674 q 242 633 244 655 q 271 577 242 592 q 342 562 300 562 "},"/":{"x_min":74.96875,"x_max":701.0625,"ha":778,"o":"m 145 -58 l 74 -16 l 630 946 l 701 904 l 145 -58 "},"K":{"x_min":0,"x_max":930.5625,"ha":774,"o":"m 0 659 l 250 910 l 250 -1 l 0 -1 l 0 659 m 215 514 l 612 910 l 930 910 l 523 501 l 708 316 l 708 0 l 370 336 l 215 182 l 215 514 "},"7":{"x_min":34,"x_max":904.28125,"ha":833,"o":"m 269 910 l 904 910 l 339 340 l 339 -1 l 127 -1 l 128 332 l 457 668 l 34 668 l 269 910 "},"d":{"x_min":-1,"x_max":674,"ha":724,"o":"m 317 181 q 432 232 383 181 q 482 355 482 284 q 427 485 482 431 q 294 540 372 540 l 198 540 l 199 728 l 281 728 q 557 619 440 728 q 674 355 674 511 q 575 103 674 208 q 328 -1 477 -1 l 236 -1 l 236 180 l 317 181 m -1 527 l 198 728 l 198 -1 l -1 -1 l -1 527 "},",":{"x_min":41,"x_max":324.328125,"ha":425,"o":"m 133 229 l 324 229 l 318 0 l 324 -1 l 133 -1 l 133 229 m 158 -151 l 41 -152 l 221 34 l 319 0 l 158 -151 "},"Y":{"x_min":0,"x_max":930.5625,"ha":774,"o":"m 0 659 l 250 910 l 250 -1 l 0 -1 l 0 659 m 215 182 l 215 514 l 612 910 l 930 910 l 215 182 "},"E":{"x_min":0,"x_max":809.71875,"ha":653,"o":"m 0 659 l 251 910 l 251 675 l 251 -1 l 0 -1 l 0 659 m 180 227 l 576 227 l 576 -1 l 250 -1 l 180 227 m 166 563 l 576 563 l 576 339 l 250 339 l 166 563 m 188 674 l 250 910 l 809 910 l 573 674 l 188 674 "},"y":{"x_min":0,"x_max":744.453125,"ha":618,"o":"m 0 527 l 200 728 l 200 -1 l 0 -1 l 0 527 m 172 144 l 172 411 l 488 728 l 744 728 l 172 144 "},"\"":{"x_min":48,"x_max":312,"ha":361,"o":"m 222 906 l 312 906 l 298 668 l 235 668 l 222 906 m 48 906 l 138 906 l 125 668 l 62 668 l 48 906 "},"g":{"x_min":-3,"x_max":799.78125,"ha":658,"o":"m 612 540 l 381 540 q 246 486 303 540 q 189 355 189 432 q 236 233 189 285 q 352 181 284 181 l 433 181 l 433 -1 l 341 -1 q 96 104 195 -1 q -3 355 -3 209 q 118 619 -3 510 q 405 728 240 728 l 799 728 l 612 540 m 433 -1 l 433 451 l 612 451 l 612 -1 l 433 -1 "},"e":{"x_min":0,"x_max":647.21875,"ha":522,"o":"m 0 527 l 200 728 l 200 538 l 200 -1 l 0 -1 l 0 527 m 144 181 l 461 181 l 461 -1 l 199 -1 l 144 181 m 133 450 l 461 450 l 461 271 l 200 271 l 133 450 m 150 539 l 200 728 l 647 728 l 458 539 l 150 539 "},"J":{"x_min":-79.5625,"x_max":270,"ha":332,"o":"m 20 -1 l 20 659 l 270 910 l 270 0 q 267 -49 270 -28 q 252 -119 260 -78 q 208 -200 245 -160 q 125 -257 171 -239 q 21 -276 78 -276 l -79 -276 l -79 -57 l -21 -57 q 10 -38 2 -57 l 20 -1 "},"±":{"x_min":61,"x_max":703,"ha":763,"o":"m 703 26 l 61 26 l 61 120 l 703 120 l 703 26 m 429 460 l 703 460 l 703 366 l 429 366 l 429 197 l 335 197 l 335 366 l 61 366 l 61 460 l 335 460 l 335 629 l 429 629 l 429 460 "},"|":{"x_min":90,"x_max":132,"ha":250,"o":"m 132 1118 l 132 -278 l 90 -278 l 90 1118 l 132 1118 "},"©":{"x_min":53,"x_max":768,"ha":800,"o":"m 411 254 q 172 331 244 254 q 76 469 100 409 q 53 601 53 529 q 147 846 53 743 q 411 950 241 950 q 674 847 580 950 q 768 601 768 744 q 674 356 768 459 q 411 254 581 254 m 411 922 q 168 826 255 922 q 82 601 82 731 q 168 376 82 470 q 411 282 255 282 q 653 377 567 282 q 740 602 740 473 q 653 826 740 731 q 411 922 566 922 m 411 733 q 301 691 340 733 q 263 596 263 650 q 301 499 263 542 q 411 459 341 459 q 493 480 467 459 q 540 525 519 501 l 540 483 q 497 448 524 464 q 411 433 469 433 q 281 482 327 433 q 235 597 235 531 q 280 711 235 662 q 411 761 326 761 q 490 745 462 761 q 540 710 519 729 l 540 677 q 493 714 523 696 q 411 733 463 733 "},"^":{"x_min":152.78125,"x_max":333.328125,"ha":1389,"o":"m 152 827 l 243 910 l 333 819 l 291 777 l 243 827 l 173 769 l 152 827 "},"q":{"x_min":0,"x_max":750,"ha":801,"o":"m 472 211 q 556 365 556 265 q 501 500 556 450 q 372 550 446 550 q 242 502 296 550 q 189 366 189 455 q 243 235 189 289 q 380 182 297 182 l 744 182 l 566 -1 l 397 -6 q 110 100 220 -6 q 0 366 0 206 q 111 642 0 543 q 375 742 223 742 q 640 643 530 742 q 750 365 750 544 q 719 211 750 293 l 472 211 "},"b":{"x_min":-8,"x_max":627,"ha":674,"o":"m -8 527 l 191 728 l 191 -1 l -8 -1 l -8 527 m 383 728 q 560 670 493 728 q 627 499 627 613 q 561 337 627 402 q 389 272 496 272 l 242 272 l 242 450 l 386 450 q 420 463 407 450 q 434 496 434 476 q 421 525 434 511 q 385 539 408 539 l 190 539 l 190 728 l 383 728 m 383 450 q 561 395 496 450 q 627 227 627 340 q 561 64 627 129 q 389 -1 496 -1 l 242 -1 l 242 181 l 385 182 q 418 196 406 182 q 434 231 431 210 q 386 272 434 272 l 242 272 l 242 450 l 383 450 "},"D":{"x_min":-3,"x_max":843,"ha":906,"o":"m 294 225 l 294 -1 l 410 -1 q 718 129 594 -1 q 843 444 843 259 q 697 772 843 635 q 351 910 552 910 l 248 910 l 247 672 l 369 675 q 534 607 465 675 q 603 445 603 539 q 543 290 603 356 q 397 225 484 225 l 294 225 m -3 659 l 247 910 l 247 0 l -3 0 l -3 659 "},"z":{"x_min":0,"x_max":731.953125,"ha":644,"o":"m 190 728 l 731 728 l 185 180 l 604 180 l 604 -1 l 0 -1 l 0 236 l 297 539 l 4 539 l 190 728 "},"w":{"x_min":1,"x_max":1048.78125,"ha":908,"o":"m 1048 731 l 318 0 l 317 311 l 1 0 l 1 536 l 191 731 l 191 411 l 509 731 l 509 422 l 822 731 l 1048 731 "},"$":{"x_min":18,"x_max":572.15625,"ha":600,"o":"m 235 686 q 371 635 317 686 q 425 508 425 584 q 374 378 425 431 q 247 325 323 325 l 106 325 l 18 325 l 18 471 l 230 469 q 254 479 245 469 q 265 507 263 489 q 223 540 265 540 q 80 595 135 540 q 25 733 25 651 q 80 856 25 805 q 212 908 136 908 l 572 908 l 419 757 l 206 757 q 172 727 172 757 q 190 695 172 704 q 235 686 209 686 m 280 963 l 280 251 l 236 251 l 236 963 l 280 963 "},"™":{"x_min":33,"x_max":409,"ha":431,"o":"m 33 964 l 181 964 l 181 956 l 112 956 l 112 747 l 102 747 l 102 956 l 33 956 l 33 964 m 174 747 l 223 964 l 292 761 l 363 964 l 409 747 l 399 747 l 360 932 l 292 734 l 224 933 l 183 746 l 174 747 "},"\\":{"x_min":125.359375,"x_max":751.34375,"ha":778,"o":"m 125 911 l 196 953 l 751 -9 l 680 -51 l 125 911 "},"µ":{"x_min":101,"x_max":774.609375,"ha":800,"o":"m 232 212 q 251 80 232 113 q 320 47 270 47 q 450 160 397 47 q 504 443 504 273 l 504 624 l 632 624 l 632 167 q 644 76 632 105 q 684 47 656 47 q 728 75 712 47 q 744 161 744 104 l 744 181 l 773 181 l 774 168 l 774 150 q 742 31 774 76 q 649 -13 709 -13 q 545 46 583 -13 q 508 226 508 106 q 422 44 476 102 q 289 -13 369 -13 q 187 23 229 -13 q 132 131 150 61 l 131 92 q 173 -103 131 0 q 219 -231 216 -206 q 203 -274 219 -259 q 160 -290 188 -290 q 114 -265 128 -290 q 101 -192 101 -241 l 107 -112 l 107 11 l 107 151 l 102 283 l 102 624 l 232 624 l 232 212 "},"®":{"x_min":53,"x_max":769,"ha":800,"o":"m 411 254 q 172 331 244 254 q 76 469 100 409 q 53 601 53 529 q 147 846 53 743 q 411 950 242 950 q 675 847 581 950 q 769 601 769 744 q 675 356 769 459 q 411 254 582 254 m 411 922 q 168 826 255 922 q 82 601 82 731 q 168 376 82 470 q 411 282 255 282 q 654 377 568 282 q 741 602 741 473 q 654 826 741 731 q 411 922 567 922 m 451 792 q 510 768 479 786 q 541 687 541 750 q 511 612 541 629 q 447 590 482 596 l 381 590 l 545 416 l 510 416 l 346 590 l 320 590 l 320 416 l 292 416 l 292 792 l 451 792 m 451 618 q 492 635 472 622 q 513 687 513 648 q 498 738 513 727 q 476 752 483 750 q 449 764 470 755 l 320 764 l 320 618 l 451 618 "},"-":{"x_min":97.21875,"x_max":423.609375,"ha":515,"o":"m 97 458 l 423 458 l 423 340 l 97 340 l 97 458 "},"Q":{"x_min":0,"x_max":938,"ha":974,"o":"m 591 264 q 695 456 695 331 q 626 626 695 565 q 464 687 558 687 q 304 627 372 687 q 236 457 236 568 q 303 294 236 360 q 476 228 370 228 l 930 228 l 708 -1 l 497 -8 q 140 125 280 -8 q 0 458 0 259 q 138 801 0 677 q 469 926 277 926 q 764 833 661 926 q 903 655 868 740 q 938 456 938 570 q 900 264 938 364 l 854 264 l 801 264 l 765 264 l 734 264 l 708 264 l 684 264 l 665 264 l 648 264 l 609 264 l 591 264 "},"M":{"x_min":0,"x_max":1025,"ha":1097,"o":"m 0 287 l 629 913 l 629 520 l 1025 913 l 1025 0 l 787 0 l 787 395 l 387 -3 l 387 383 l 0 0 l 0 287 "},"C":{"x_min":-4,"x_max":833.328125,"ha":686,"o":"m 541 227 l 541 -1 l 427 -1 q 120 129 244 -1 q -4 445 -4 260 q 141 773 -4 637 q 487 910 287 910 l 833 910 l 598 675 l 476 675 q 308 608 381 675 q 236 446 236 542 q 295 292 236 358 q 441 227 354 227 l 541 227 "},"[":{"x_min":0,"x_max":278,"ha":396,"o":"m 0 1049 l 278 1049 l 278 966 l 201 966 l 201 -35 l 278 -35 l 278 -111 l 0 -111 l 0 1049 "},"L":{"x_min":0,"x_max":576.390625,"ha":643,"o":"m 0 659 l 250 910 l 250 675 l 250 -1 l 0 -1 l 0 659 m 250 227 l 576 227 l 576 -1 l 250 -1 l 250 227 "},"!":{"x_min":126,"x_max":325,"ha":425,"o":"m 133 228 l 325 228 l 325 -1 l 133 -1 l 133 228 m 126 722 l 318 910 l 318 339 l 126 339 l 126 722 "}," ":{"x_min":0,"x_max":0,"ha":390},"X":{"x_min":0,"x_max":920.828125,"ha":746,"o":"m 0 -8 l 0 316 l 594 910 l 920 910 l 0 -8 m 8 683 l 236 910 l 695 450 l 695 -6 l 8 683 "},"P":{"x_min":-11,"x_max":820.9375,"ha":843,"o":"m -11 659 l 239 910 l 239 -1 l -11 -1 l -11 659 m 480 910 q 722 822 623 910 q 820 562 820 735 q 721 329 820 426 q 487 232 622 232 l 303 232 l 303 454 l 415 456 q 500 485 470 456 q 529 558 529 514 q 501 643 529 611 q 414 675 476 675 l 239 675 l 239 910 l 480 910 "},"%":{"x_min":87.203125,"x_max":1095,"ha":1146,"o":"m 864 461 q 1033 392 971 461 q 1095 233 1095 324 q 1034 72 1095 141 q 864 4 974 4 q 691 70 755 4 q 628 231 628 137 q 691 391 628 322 q 864 461 754 461 m 1093 907 l 166 -1 l 87 -1 l 1000 906 l 1093 907 m 372 899 q 541 830 479 899 q 603 670 603 762 q 542 509 603 578 q 372 441 482 441 q 199 507 263 441 q 136 669 136 574 q 199 829 136 759 q 372 899 262 899 m 864 78 q 975 123 933 78 q 1017 232 1017 169 q 976 339 1017 294 q 864 385 939 385 q 749 339 793 385 q 709 230 709 291 q 748 122 709 166 q 864 78 788 78 m 372 515 q 483 560 441 515 q 525 669 525 606 q 484 777 525 732 q 372 823 447 823 q 257 777 301 823 q 217 668 217 729 q 256 559 217 604 q 372 515 296 515 "},"#":{"x_min":44,"x_max":708,"ha":736,"o":"m 351 876 l 309 706 l 497 706 l 539 876 l 571 876 l 529 706 l 708 706 l 697 673 l 525 673 l 486 516 l 669 516 l 658 483 l 475 483 l 433 305 l 400 304 l 442 483 l 255 483 l 212 311 l 179 311 l 214 483 l 44 483 l 55 516 l 233 516 l 262 673 l 76 673 l 87 706 l 276 706 l 318 876 l 351 876 m 303 673 l 266 516 l 453 516 l 492 673 l 303 673 "},"_":{"x_min":0,"x_max":1388.890625,"ha":1389,"o":"m 1388 0 l 0 -2 l 1388 0 "},"+":{"x_min":97,"x_max":423,"ha":515,"o":"m 97 458 l 423 458 l 423 340 l 97 340 l 97 458 m 198 236 l 198 563 l 316 563 l 316 236 l 198 236 "},")":{"x_min":66,"x_max":277,"ha":354,"o":"m 204 984 q 258 738 239 847 q 277 491 277 628 q 263 180 277 300 q 203 -106 249 59 l 66 -106 q 99 39 85 -32 q 122 175 114 110 q 133 320 129 239 q 138 491 138 400 q 126 712 138 639 q 102 843 114 785 q 66 984 89 902 l 204 984 "},"'":{"x_min":48,"x_max":138,"ha":181,"o":"m 48 906 l 138 906 l 124 668 l 61 668 l 48 906 "},"T":{"x_min":13.84375,"x_max":809.71875,"ha":653,"o":"m 243 676 l 493 910 l 493 675 l 493 -1 l 243 -1 l 243 676 m 13 674 l 250 910 l 809 910 l 573 674 l 13 674 "},"a":{"x_min":-7.359375,"x_max":656,"ha":713,"o":"m -7 236 l 484 728 l 656 728 l 656 -1 l 456 -1 l 456 93 l 141 93 l 320 271 l 456 271 l 456 463 l -7 0 l -7 236 "},"=":{"x_min":50,"x_max":358.328125,"ha":403,"o":"m 50 303 l 358 303 l 358 234 l 50 234 l 50 303 m 50 485 l 358 485 l 358 416 l 50 416 l 50 485 "},"N":{"x_min":0,"x_max":842,"ha":913,"o":"m 0 662 l 250 913 l 250 -1 l 0 -1 l 0 662 m 842 0 l 208 629 l 249 913 l 575 584 l 575 913 l 842 913 l 842 0 "},"2":{"x_min":-8.328125,"x_max":813.890625,"ha":833,"o":"m -8 -1 q 253 250 151 149 q 437 442 355 350 q 519 588 519 533 q 506 630 519 605 q 461 663 493 655 q 395 673 430 670 q 308 676 361 676 l 205 675 l 90 675 l 193 779 l 319 907 l 527 907 q 704 852 627 907 q 797 730 780 798 q 813 630 813 663 q 755 455 813 543 q 552 225 697 366 l 580 225 l 616 225 l 640 225 l 661 225 l 679 225 l 695 225 l 733 225 q 762 225 756 225 l 761 -1 l -8 -1 "},"j":{"x_min":-63.890625,"x_max":215,"ha":265,"o":"m 15 0 l 15 528 l 215 728 l 215 0 q 202 -87 215 -45 q 165 -157 190 -128 q 112 -198 140 -185 q 63 -214 84 -210 q 16 -219 42 -219 l -63 -219 l -63 -44 l -16 -44 q 6 -28 1 -44 l 15 0 "},"Z":{"x_min":1,"x_max":915.28125,"ha":807,"o":"m 238 910 l 915 910 l 232 225 l 755 225 l 755 -1 l 1 -1 l 1 296 l 372 675 l 5 675 l 238 910 "},"u":{"x_min":0,"x_max":586,"ha":642,"o":"m 586 272 q 499 73 586 157 q 290 -11 412 -11 q 85 72 170 -11 q 0 272 0 155 l 0 528 l 200 728 l 200 270 q 228 207 200 233 q 294 182 256 182 q 359 207 330 182 q 389 270 389 232 l 389 728 l 586 728 l 586 629 l 586 272 "},"1":{"x_min":143,"x_max":539,"ha":833,"o":"m 539 -1 l 289 -1 l 289 659 l 143 659 l 386 910 l 539 910 l 539 -1 "},"k":{"x_min":0,"x_max":744.453125,"ha":618,"o":"m 0 527 l 200 728 l 200 -1 l 0 -1 l 0 527 m 172 411 l 488 728 l 744 728 l 418 400 l 566 252 l 566 0 l 295 268 l 172 144 l 172 411 "},"<":{"x_min":21.21875,"x_max":319.609375,"ha":354,"o":"m 21 347 l 278 604 l 319 604 l 62 347 l 319 97 l 278 97 l 21 347 "},"t":{"x_min":11.375,"x_max":648.21875,"ha":522,"o":"m 195 540 l 395 728 l 395 538 l 395 -1 l 195 -1 l 195 540 m 11 539 l 200 728 l 648 728 l 459 539 l 11 539 "},"W":{"x_min":3,"x_max":1311.109375,"ha":1136,"o":"m 1311 914 l 398 -2 l 398 388 l 3 -2 l 3 668 l 241 909 l 241 513 l 640 914 l 640 526 l 1031 914 l 1311 914 "},"v":{"x_min":1,"x_max":733.34375,"ha":617,"o":"m 1 539 l 194 731 l 192 422 l 505 731 l 733 731 l 1 0 l 1 539 "},">":{"x_min":21,"x_max":319.5,"ha":347,"o":"m 278 347 l 21 604 l 62 603 l 319 346 l 62 97 l 21 96 l 278 347 "},"s":{"x_min":0,"x_max":693.0625,"ha":558,"o":"m 272 450 q 443 387 377 450 q 510 228 510 324 q 444 67 510 136 q 286 -1 379 -1 l 112 -1 l 0 -1 l 0 181 l 266 180 q 297 194 284 180 q 310 228 310 209 q 257 268 310 268 q 80 338 150 268 q 10 509 10 409 q 80 662 10 597 q 243 728 151 728 l 693 728 l 503 539 l 236 539 q 206 529 219 539 q 193 502 193 520 q 213 461 193 472 q 272 450 240 450 "},"B":{"x_min":-11,"x_max":783,"ha":843,"o":"m -11 659 l 239 910 l 239 -1 l -11 -1 l -11 659 m 480 910 q 701 838 619 910 q 783 624 783 767 q 701 421 783 502 q 487 340 620 340 l 303 340 l 303 562 l 483 564 q 526 580 509 564 q 543 622 543 597 q 527 659 543 644 q 481 675 512 675 l 239 675 l 239 910 l 480 910 m 480 564 q 701 494 619 564 q 783 284 783 424 q 701 80 783 161 q 487 -1 620 -1 l 303 -1 l 303 227 l 481 228 q 525 245 508 228 q 543 288 543 263 q 529 324 543 309 q 483 340 515 340 l 303 340 l 303 562 l 480 564 "},"?":{"x_min":111,"x_max":743,"ha":815,"o":"m 235 228 l 427 228 l 427 -1 l 235 -1 l 235 228 m 300 326 l 300 350 q 312 415 300 398 l 333 435 q 352 468 337 453 q 407 485 364 485 q 475 510 447 485 q 503 576 503 536 q 477 643 503 612 q 415 675 451 675 l 111 675 l 348 911 l 420 911 q 650 814 558 911 q 743 570 743 718 q 649 383 743 475 q 430 292 556 292 l 300 326 m 238 485 l 431 485 l 431 292 l 238 292 l 238 485 "},"H":{"x_min":0,"x_max":840.28125,"ha":911,"o":"m 0 659 l 250 910 l 250 -1 l 0 -1 l 0 659 m 577 910 l 840 910 l 840 -1 l 577 -1 l 577 910 m 207 562 l 632 562 l 646 340 l 194 340 l 207 562 "},"c":{"x_min":-3,"x_max":666.671875,"ha":549,"o":"m 433 181 l 433 -1 l 341 -1 q 96 104 195 -1 q -3 355 -3 209 q 111 619 -3 510 q 388 728 226 728 l 666 728 l 477 540 l 380 540 q 245 486 302 540 q 189 355 189 432 q 236 233 189 285 q 352 181 284 181 l 433 181 "},"I":{"x_min":0,"x_max":250,"ha":311,"o":"m 0 659 l 250 910 l 250 -1 l 0 -1 l 0 659 "},"G":{"x_min":-4,"x_max":1000.171875,"ha":824,"o":"m 767 675 l 477 675 q 309 608 382 675 q 236 446 236 542 q 295 292 236 358 q 441 227 354 227 l 541 227 l 541 0 l 427 -1 q 120 129 244 -1 q -4 445 -4 260 q 141 773 -4 637 q 487 910 287 910 l 1000 910 l 767 675 m 542 -1 l 542 564 l 767 564 l 767 -1 l 542 -1 "},"(":{"x_min":41,"x_max":252.109375,"ha":354,"o":"m 252 984 q 198 736 216 847 q 180 491 180 624 q 193 179 180 296 q 252 -106 206 62 l 114 -106 q 60 143 71 50 q 45 320 49 236 q 41 491 41 403 q 53 702 41 622 q 79 845 65 781 q 114 984 93 910 l 252 984 "},"`":{"x_min":186.5,"x_max":380.9375,"ha":1389,"o":"m 255 1098 l 380 922 l 318 915 l 186 1056 l 255 1098 "},"U":{"x_min":0,"x_max":733,"ha":803,"o":"m 733 341 q 623 90 733 194 q 363 -14 513 -14 q 107 89 215 -14 q 0 342 0 193 l 0 660 l 250 911 l 250 339 q 285 260 250 293 q 369 228 320 228 q 450 259 415 228 q 486 339 486 291 l 486 557 l 486 756 l 486 911 l 733 911 l 733 787 l 733 341 "},"◊":{"x_min":3.984375,"x_max":681.984375,"ha":686,"o":"m 342 956 l 81 401 l 342 -157 l 604 401 l 342 956 m 342 1121 l 681 401 l 342 -322 l 3 401 l 342 1121 "},"F":{"x_min":0,"x_max":809.71875,"ha":643,"o":"m 0 659 l 250 910 l 250 675 l 250 458 l 250 -1 l 0 -1 l 0 659 m 250 563 l 576 563 l 576 339 l 250 339 l 250 563 m 250 674 l 250 910 l 809 910 l 573 674 l 250 674 "},"r":{"x_min":-8,"x_max":627,"ha":661,"o":"m -8 528 l 191 728 l 191 0 l -8 0 l -8 528 m 383 728 q 560 670 493 728 q 627 498 627 612 q 561 336 627 401 q 389 271 496 271 l 374 271 q 357 273 366 271 q 346 276 348 275 q 344 279 344 277 l 349 283 l 360 289 l 241 381 l 331 381 q 399 402 376 381 q 423 463 423 424 q 401 518 423 498 q 331 539 379 539 l 190 539 l 190 728 l 383 728 m 621 -5 l 234 381 l 471 381 l 621 227 l 621 -5 "},":":{"x_min":126,"x_max":325,"ha":425,"o":"m 133 228 l 325 228 l 325 -1 l 133 -1 l 133 228 m 126 556 l 318 556 l 318 327 l 126 327 l 126 556 "},"x":{"x_min":0,"x_max":736.109375,"ha":596,"o":"m 0 -5 l 0 252 l 475 728 l 736 728 l 0 -5 m 5 546 l 188 728 l 555 359 l 555 -5 l 5 546 "},"*":{"x_min":37.515625,"x_max":253,"ha":313,"o":"m 142 790 l 131 829 l 127 868 q 147 903 127 900 q 167 870 167 903 q 165 849 167 862 q 161 826 163 837 q 157 803 159 816 q 151 790 152 794 l 196 834 q 237 857 220 854 q 249 849 246 853 q 226 812 260 830 l 156 781 q 223 758 194 771 q 253 731 253 746 q 248 720 253 727 q 235 713 244 713 q 193 731 217 713 l 150 772 l 160 730 q 164 711 163 720 q 167 690 165 702 q 148 661 167 661 q 132 670 137 661 l 127 695 q 132 740 127 719 l 142 772 l 99 732 q 57 713 77 713 q 41 720 49 713 q 54 749 29 737 q 137 780 78 762 q 64 810 99 792 q 41 848 29 827 q 54 857 47 857 q 98 834 74 857 l 142 790 "},"V":{"x_min":3,"x_max":918.0625,"ha":746,"o":"m 3 673 l 245 914 l 245 526 l 632 909 l 918 909 l 3 -2 l 3 673 "},"÷":{"x_min":59,"x_max":702,"ha":763,"o":"m 381 219 q 436 196 414 219 q 459 140 459 174 q 435 84 459 106 q 381 61 414 61 q 324 84 347 61 q 302 140 302 110 q 327 196 302 173 q 381 219 352 219 m 702 281 l 59 281 l 59 375 l 702 375 l 702 281 m 381 593 q 436 568 414 593 q 459 514 459 544 q 435 458 459 480 q 381 435 414 435 q 324 457 347 435 q 302 514 302 482 q 327 570 302 547 q 381 593 352 593 "}," ":{"x_min":0,"x_max":0,"ha":694},"h":{"x_min":0,"x_max":672.21875,"ha":721,"o":"m 0 527 l 200 728 l 200 -1 l 0 -1 l 0 527 m 461 728 l 672 728 l 672 -1 l 461 -1 l 461 728 m 167 450 l 505 450 l 517 272 l 156 272 l 167 450 "},"0":{"x_min":0,"x_max":938,"ha":975,"o":"m 938 458 q 799 113 938 237 q 468 -10 660 -10 q 138 112 277 -10 q 0 458 0 235 q 138 801 0 677 q 469 926 277 926 q 764 833 661 926 q 903 656 868 741 q 938 458 938 571 m 236 458 q 304 290 236 351 q 466 229 372 229 q 626 288 558 229 q 695 458 695 348 q 626 626 695 566 q 464 687 558 687 q 304 628 372 687 q 236 458 236 569 "},".":{"x_min":133,"x_max":325,"ha":425,"o":"m 133 229 l 325 229 l 325 -1 l 133 -1 l 133 229 "},"":{"x_min":76.390625,"x_max":1020.828125,"ha":1097,"o":"m 566 824 l 565 833 l 565 849 q 628 1004 565 932 q 790 1094 691 1075 l 790 1077 l 791 1052 q 721 895 791 966 q 583 824 651 824 l 577 824 l 566 824 m 1020 273 q 946 130 981 190 q 863 23 911 71 q 743 -24 816 -24 q 652 -1 708 -24 q 570 21 595 21 q 480 -1 538 21 q 395 -24 422 -24 q 308 5 354 -24 l 265 42 l 198 126 q 126 268 156 185 q 86 400 95 351 q 76 499 76 449 q 161 742 76 648 q 380 836 247 836 q 424 832 402 836 q 461 823 445 827 q 496 809 476 818 q 538 795 516 801 q 569 789 559 789 q 655 812 597 789 q 755 836 713 836 q 890 808 833 836 q 998 725 948 783 q 897 627 933 683 q 862 502 862 572 q 904 367 862 429 q 1020 273 945 306 "},"f":{"x_min":0,"x_max":647.21875,"ha":514,"o":"m 0 527 l 200 728 l 200 538 l 200 366 l 200 -1 l 0 -1 l 0 527 m 200 450 l 461 450 l 461 271 l 200 271 l 200 450 m 200 539 l 200 728 l 647 728 l 461 539 l 200 539 "},";":{"x_min":41,"x_max":324,"ha":425,"o":"m 132 228 l 324 228 l 324 -1 l 132 -1 l 132 228 m 125 556 l 317 556 l 317 327 l 125 327 l 125 556 m 158 -151 l 41 -152 l 221 34 l 318 -1 l 158 -151 "},"i":{"x_min":0,"x_max":200,"ha":263,"o":"m 0 527 l 200 728 l 200 -1 l 0 -1 l 0 527 "},"A":{"x_min":-9,"x_max":822,"ha":892,"o":"m -9 295 l 605 910 l 822 910 l 822 -1 l 572 -1 l 572 117 l 178 117 l 401 339 l 572 339 l 572 581 l -9 -1 l -9 295 "},"6":{"x_min":96,"x_max":788,"ha":833,"o":"m 546 666 q 721 550 654 639 q 788 341 788 461 q 686 92 788 191 q 421 -7 585 -7 q 182 95 268 -7 q 96 345 96 198 q 132 494 96 418 q 226 625 169 570 l 323 718 l 433 832 l 511 910 l 783 910 q 652 778 696 825 l 546 666 m 428 465 q 339 428 371 465 q 307 344 307 392 q 342 248 307 288 q 441 208 377 208 q 531 244 499 208 q 563 328 563 280 q 528 424 563 384 q 428 465 493 465 "},"n":{"x_min":0,"x_max":672,"ha":729,"o":"m 0 528 l 200 729 l 200 -1 l 0 -1 l 0 528 m 672 0 l 191 477 l 201 729 l 459 466 l 459 729 l 672 729 l 672 0 "},"O":{"x_min":0,"x_max":938,"ha":975,"o":"m 938 458 q 799 113 938 237 q 468 -10 660 -10 q 138 112 277 -10 q 0 458 0 235 q 138 801 0 677 q 469 926 277 926 q 764 833 661 926 q 903 656 868 741 q 938 458 938 571 m 236 458 q 304 290 236 351 q 466 229 372 229 q 626 288 558 229 q 695 458 695 348 q 626 626 695 566 q 464 687 558 687 q 304 628 372 687 q 236 458 236 569 "},"3":{"x_min":154.5625,"x_max":896.21875,"ha":833,"o":"m 176 674 l 410 910 l 896 910 l 605 616 q 732 496 687 573 q 778 325 778 418 q 687 89 778 179 q 455 -1 597 -1 l 157 -1 l 154 227 l 458 225 q 519 252 493 225 q 546 317 546 280 q 517 381 546 353 q 450 410 489 410 l 355 410 l 279 410 l 546 674 l 176 674 "},"]":{"x_min":118,"x_max":396,"ha":396,"o":"m 396 -111 l 118 -111 l 118 -35 l 195 -35 l 195 966 l 118 966 l 118 1049 l 396 1049 l 396 -111 "},"m":{"x_min":-1,"x_max":819,"ha":878,"o":"m 0 229 l 502 729 l 502 416 l 819 728 l 819 -2 l 629 -2 l 629 316 l 309 -2 l 309 305 l -1 -1 l 0 229 "},"9":{"x_min":107,"x_max":799,"ha":833,"o":"m 348 242 q 174 359 241 268 q 107 567 107 449 q 207 816 107 716 q 473 917 307 917 q 713 814 628 917 q 799 563 799 712 q 762 416 799 494 q 667 284 725 338 l 571 189 l 461 76 l 383 -1 l 111 -1 l 241 129 l 348 242 m 466 445 q 556 481 524 445 q 588 565 588 517 q 553 661 588 621 q 453 702 518 702 q 364 665 396 702 q 332 581 332 629 q 367 485 332 525 q 466 445 402 445 "},"l":{"x_min":0,"x_max":461,"ha":514,"o":"m 0 527 l 200 728 l 200 538 l 200 -1 l 0 -1 l 0 527 m 200 181 l 461 181 l 461 -1 l 200 -1 l 200 181 "},"8":{"x_min":97,"x_max":785,"ha":833,"o":"m 97 340 q 152 532 97 452 q 243 636 208 612 q 315 659 279 659 q 350 639 334 659 q 389 580 366 619 q 441 535 412 541 q 529 581 475 530 q 611 631 584 631 q 721 543 657 631 q 785 340 785 454 q 675 95 785 197 q 420 -7 566 -7 q 190 97 284 -7 q 97 340 97 201 m 291 513 q 226 587 246 538 q 208 701 208 637 q 286 861 208 798 q 467 924 364 924 q 627 853 560 924 q 694 687 694 783 q 676 578 694 623 q 630 516 659 533 q 575 495 600 500 l 552 493 l 489 498 l 438 506 l 384 501 l 350 498 q 320 501 329 498 l 291 513 m 428 466 q 339 429 371 466 q 307 344 307 393 q 342 248 307 288 q 441 208 377 208 q 531 244 499 208 q 563 329 563 280 q 528 425 563 385 q 428 466 493 466 m 443 774 q 381 748 404 774 q 359 689 359 722 q 383 622 359 651 q 453 593 408 593 q 515 618 492 593 q 538 677 538 644 q 513 744 538 715 q 443 774 488 774 "},"p":{"x_min":-8,"x_max":656,"ha":674,"o":"m -8 527 l 191 728 l 191 -1 l -8 -1 l -8 527 m 383 728 q 578 658 500 728 q 656 449 656 589 q 576 265 656 345 q 389 185 497 185 l 242 185 l 242 363 l 332 364 q 399 386 375 364 q 423 446 423 409 q 401 513 423 487 q 331 539 379 539 l 190 539 l 190 728 l 383 728 "},"4":{"x_min":12,"x_max":928.671875,"ha":833,"o":"m 752 559 l 752 -1 l 519 -1 l 519 559 l 752 559 m 570 229 l 12 229 l 691 913 l 928 913 l 432 417 l 570 417 l 570 229 "},"R":{"x_min":-11,"x_max":783,"ha":826,"o":"m -11 660 l 239 910 l 239 0 l -11 0 l -11 660 m 480 910 q 701 838 619 910 q 783 623 783 767 q 701 420 783 501 q 487 339 620 339 q 429 350 429 339 l 434 355 l 450 362 l 302 475 l 413 477 q 498 506 469 477 q 527 580 527 535 q 501 650 527 624 q 413 675 475 675 l 239 675 l 239 910 l 480 910 m 776 -6 l 293 477 l 588 477 l 776 285 l 776 -6 "},"o":{"x_min":0,"x_max":750,"ha":779,"o":"m 750 367 q 638 92 750 193 q 375 -8 526 -8 q 110 90 220 -8 q 0 367 0 189 q 111 642 0 543 q 375 742 223 742 q 640 643 530 742 q 750 367 750 544 m 189 367 q 243 233 189 282 q 372 184 298 184 q 502 231 448 184 q 556 367 556 279 q 501 500 556 451 q 372 550 446 550 q 242 502 296 550 q 189 367 189 455 "},"5":{"x_min":19.4375,"x_max":937.5,"ha":833,"o":"m 712 674 l 452 674 l 397 618 l 586 617 q 727 496 676 576 q 779 325 779 415 q 688 89 779 179 q 456 -1 598 -1 l 19 -1 l 211 220 l 294 225 l 459 225 q 520 253 494 225 q 547 319 547 281 q 518 384 547 355 q 451 413 490 413 l 270 413 l 93 413 l 547 910 l 937 910 l 712 674 "}}}
